<svg xmlns="http://www.w3.org/2000/svg" width="198.572" height="148" viewBox="0 0 198.572 148">
  <g id="Group_2952" data-name="Group 2952" transform="translate(-186 -2322)">
    <rect id="Rectangle_290" data-name="Rectangle 290" width="85" height="148" rx="11" transform="translate(186 2322)" fill="#7e7e7e" opacity="0.1"/>
    <g id="Group_2929" data-name="Group 2929" transform="matrix(0.309, 0.951, -0.951, 0.309, 233.082, 1943.26)">
      <path id="Path_3035" data-name="Path 3035" d="M454.957,118.88a6.421,6.421,0,0,0-8.653-2.752,6.352,6.352,0,0,0-1.309.907L431.056,90.968l-10.8,5.84,8.065,23.431a9.868,9.868,0,0,0-.438,18.594,8.746,8.746,0,0,0,11.974,12.45,8.639,8.639,0,0,0,2.995-3.633,7.8,7.8,0,0,0,12.777-6.909,7.795,7.795,0,1,0-1.17-15.151A6.421,6.421,0,0,0,454.957,118.88Z" transform="translate(30.731 3.695)" fill="#a4d1bb"/>
      <g id="Group_2441" data-name="Group 2441" transform="translate(409.058 -16.069) rotate(7)">
        <path id="Path_3036" data-name="Path 3036" d="M427.735,78.007l6.767-3.5a9.983,9.983,0,0,1,13.453,4.277L459,100.131a1.4,1.4,0,0,1-2.2,1.655L448.591,94a10.171,10.171,0,0,0-11.667-1.652l-4.636,2.4Z" transform="translate(-354.09 -15.632)" fill="#ff5e4d"/>
        <path id="Path_3037" data-name="Path 3037" d="M412.905,86.655l-6.768,3.5a9.979,9.979,0,0,0-4.279,13.451l11.047,21.349a1.4,1.4,0,0,0,2.622-.841l-1.614-11.2a10.17,10.17,0,0,1,5.391-10.482l4.636-2.4Z" transform="translate(-391.74 2.873)" fill="#ff5e4d"/>
        <path id="Path_3038" data-name="Path 3038" d="M419.9,93.075l22.97-11.885a28.636,28.636,0,0,1,1.109-3.127,29.552,29.552,0,0,1,4.368-7.215c-10.657-10.664-24.682-19.2-42.968-21.579-8.7,16.44-9.768,32.963-7.134,47.923a37.376,37.376,0,0,1,12.819,1.686A46.115,46.115,0,0,1,419.9,93.075Z" transform="translate(-396.982 -49.269)" fill="#005558"/>
        <path id="Path_3039" data-name="Path 3039" d="M420.148,89.279c4.186-.812,8.451-.733,12.678-1.082.994-1.264,1.942-2.56,2.807-3.915a22.062,22.062,0,0,1,5.714-5.922,29.653,29.653,0,0,1,2.577-4.172c.089-.228.172-.46.268-.682a29.549,29.549,0,0,1,3.436-6.016,75.191,75.191,0,0,0-24.644-16.315A78.617,78.617,0,0,1,410.6,59.089a79.909,79.909,0,0,1-11.772,4.959,75.885,75.885,0,0,0-.534,30.76,33.307,33.307,0,0,1,7.476.295A37.712,37.712,0,0,1,420.148,89.279Z" transform="translate(-396.981 -46.612)" fill="#a4d1bb"/>
        <path id="Path_3040" data-name="Path 3040" d="M423.753,75.737a82.13,82.13,0,0,1-26.294,8.554c5.594,33.363,29.826,59.12,29.826,59.12l25.6-13.245,25.6-13.245s-7.11-35.063-31.452-58.91A81.318,81.318,0,0,1,423.753,75.737Z" transform="translate(-396.316 -37.076)" fill="#005558"/>
        <path id="Path_3041" data-name="Path 3041" d="M413.652,101.771l4.011,2.922,29.566-15.3-.288-4.849Z" transform="translate(-373.731 -0.068)" fill="#0f787a"/>
        <path id="Path_3042" data-name="Path 3042" d="M450.869,98.5a17.627,17.627,0,0,0-31.292,16.191Z" transform="translate(-367.841 6.857)" fill="#ff5e4d"/>
        <g id="Group_2440" data-name="Group 2440" transform="translate(19.14 40.779)">
          <path id="Path_3043" data-name="Path 3043" d="M439.761,77.216a17.712,17.712,0,1,1-23.87-7.594A17.713,17.713,0,0,1,439.761,77.216Z" transform="translate(-403.104 -64.428)" fill="#005558"/>
          <path id="Path_3044" data-name="Path 3044" d="M416.286,68.643a20.922,20.922,0,1,0,28.2,8.966A20.923,20.923,0,0,0,416.286,68.643Zm16.322,31.543a14.594,14.594,0,1,1,6.253-19.668A14.594,14.594,0,0,1,432.609,100.186Z" transform="translate(-404.974 -66.298)" fill="#a4d1bb"/>
        </g>
        <rect id="Rectangle_284" data-name="Rectangle 284" width="22.193" height="3.206" transform="translate(48.97 102.018) rotate(-27.353)" fill="#005558"/>
      </g>
    </g>
  </g>
</svg>
