<svg xmlns="http://www.w3.org/2000/svg" width="214.826" height="165.962" viewBox="0 0 214.826 165.962">
  <g id="Group_2950" data-name="Group 2950" transform="translate(-1346 -2304.038)">
    <rect id="Rectangle_306" data-name="Rectangle 306" width="85" height="148" rx="11" transform="translate(1346 2322)" fill="#7e7e7e" opacity="0.1"/>
    <g id="Group_2944" data-name="Group 2944" transform="translate(-165.04 -1277.893)">
      <g id="Group_2943" data-name="Group 2943" transform="translate(1562.54 3627)">
        <path id="Path_3415" data-name="Path 3415" d="M124.432,118a10.48,10.48,0,0,0,.288,8.847l-20.331-6.014a6.241,6.241,0,0,0-7.755,4.214l-16.38,55.367a6.241,6.241,0,0,0,4.214,7.755l61.351,18.15,7.822-26.436a10.469,10.469,0,1,1,3.893-13.159l8.207-27.741L139.426,131.2A10.518,10.518,0,1,0,124.432,118Z" transform="translate(-79.996 -111.604)" fill="#005558"/>
        <path id="Path_3416" data-name="Path 3416" d="M124.432,118a10.48,10.48,0,0,0,.288,8.847l-20.331-6.014a6.241,6.241,0,0,0-7.755,4.214l-16.38,55.367a6.241,6.241,0,0,0,4.214,7.755l61.351,18.15,7.822-26.436a10.469,10.469,0,1,1,3.893-13.159l8.207-27.741L139.426,131.2A10.518,10.518,0,1,0,124.432,118Z" transform="translate(-79.996 -111.604)" fill="#005558"/>
      </g>
    </g>
    <g id="Group_2945" data-name="Group 2945" transform="matrix(-0.809, -0.588, 0.588, -0.809, 652.529, 6249.235)">
      <g id="Group_2943-2" data-name="Group 2943" transform="translate(1562.54 3627)">
        <path id="Path_3415-2" data-name="Path 3415" d="M112.338,116.262a7.628,7.628,0,0,0,.209,6.439l-14.8-4.378a4.543,4.543,0,0,0-5.645,3.067l-11.922,40.3a4.543,4.543,0,0,0,3.067,5.645l44.653,13.21L133.6,161.3a7.619,7.619,0,1,1,2.833-9.578l5.973-20.191-19.153-5.666a7.655,7.655,0,1,0-10.912-9.606Z" transform="translate(-79.996 -111.604)" fill="#ff5e4d"/>
        <path id="Path_3416-2" data-name="Path 3416" d="M112.338,116.262a7.628,7.628,0,0,0,.209,6.439l-14.8-4.378a4.543,4.543,0,0,0-5.645,3.067l-11.922,40.3a4.543,4.543,0,0,0,3.067,5.645l44.653,13.21L133.6,161.3a7.619,7.619,0,1,1,2.833-9.578l5.973-20.191-19.153-5.666a7.655,7.655,0,1,0-10.912-9.606Z" transform="translate(-79.996 -111.604)" fill="#ff5e4d"/>
      </g>
    </g>
    <path id="Path_3417" data-name="Path 3417" d="M3651.567,3984.581l-11.2,37.566,11.2,3.733,10.278-38.065Z" transform="translate(-2231 -1612)" fill="#a4d1bb"/>
  </g>
</svg>
