<svg xmlns="http://www.w3.org/2000/svg" width="178" height="148.029" viewBox="0 0 178 148.029">
  <g id="Group_2951" data-name="Group 2951" transform="translate(-776 -2321.971)">
    <rect id="Rectangle_305" data-name="Rectangle 305" width="85" height="148" rx="11" transform="translate(776 2322)" fill="#7e7e7e" opacity="0.1"/>
    <g id="Group_2932" data-name="Group 2932" transform="translate(-254.141 1930.791)">
      <path id="Path_3394" data-name="Path 3394" d="M1115.089,482.446c-.2-.574-2.211-1.756-4.666-2.611a22.613,22.613,0,0,0-.583-6.58c2.068-.945,4.151-2.158,4.324-3.271.35-2.258-3.092-7.431-3.965-7.848-.56-.267-2.888.344-5.275,1.516a22.645,22.645,0,0,0-4.943-4.286c.8-2.135,1.416-4.477.751-5.387-1.349-1.844-7.442-3.067-8.354-2.745-.572.2-1.749,2.2-2.6,4.642a22.6,22.6,0,0,0-6.692.384c-.928-1.993-2.1-3.935-3.167-4.1-2.258-.351-7.431,3.092-7.849,3.965-.248.519.262,2.57,1.278,4.774a22.6,22.6,0,0,0-4.691,5.211c-1.945-.676-3.924-1.119-4.745-.518-1.845,1.348-3.069,7.441-2.745,8.354.182.514,1.812,1.516,3.917,2.335a22.582,22.582,0,0,0,.45,7.277c-1.743.869-3.294,1.9-3.442,2.85-.35,2.258,3.092,7.43,3.967,7.847.481.229,2.27-.19,4.279-1.057a22.621,22.621,0,0,0,5.6,4.782c-.613,1.84-.981,3.656-.412,4.433,1.348,1.844,7.44,3.068,8.353,2.744.516-.182,1.522-1.82,2.342-3.933a22.624,22.624,0,0,0,7.151-.673c.894,1.837,1.972,3.526,2.969,3.681,2.258.35,7.431-3.092,7.848-3.965.249-.523-.267-2.59-1.293-4.808a22.593,22.593,0,0,0,4.363-5.3c2.051.742,4.219,1.275,5.088.641C1114.189,489.451,1115.412,483.358,1115.089,482.446Zm-30.552,5.74a10.17,10.17,0,1,1,12.839-6.486A10.171,10.171,0,0,1,1084.538,488.186Z" fill="#ff5e4d"/>
      <g id="Group_2930" data-name="Group 2930" transform="translate(1074.418 464.903)">
        <path id="Path_3395" data-name="Path 3395" d="M1080.806,488.2a13.45,13.45,0,1,1,16.977-8.579A13.466,13.466,0,0,1,1080.806,488.2Zm8.339-25.375a13.26,13.26,0,1,0,8.457,16.736A13.274,13.274,0,0,0,1089.146,462.824Z" transform="translate(-1071.554 -461.969)" fill="#fff" stroke="#fff" stroke-width="0.255"/>
      </g>
      <g id="Group_2931" data-name="Group 2931" transform="translate(1068.753 459.058)">
        <path id="Path_3396" data-name="Path 3396" d="M1104.833,476.368c-.082-.037-.162-.076-.241-.117a19.278,19.278,0,0,1-37.958,2.479h0c-.09-.009-.177-.021-.264-.036a19.529,19.529,0,0,0,38.465-2.326Z" transform="translate(-1066.368 -454.809)" fill="#fff"/>
        <path id="Path_3397" data-name="Path 3397" d="M1077.9,457.99a19.183,19.183,0,0,1,12.462-.158c.083.027.163.059.245.087,0-.088,0-.177,0-.265-.056-.02-.109-.042-.165-.059a19.433,19.433,0,0,0-12.576.141C1077.882,457.82,1077.894,457.9,1077.9,457.99Z" transform="translate(-1065.308 -456.618)" fill="#fff"/>
      </g>
    </g>
    <g id="Group_2933" data-name="Group 2933" transform="translate(-221.141 1870.791)">
      <path id="Path_3394-2" data-name="Path 3394" d="M1175.032,517.167c-.427-1.21-4.666-3.706-9.847-5.511a47.729,47.729,0,0,0-1.23-13.888c4.365-1.994,8.761-4.554,9.125-6.9.74-4.765-6.526-15.684-8.368-16.564-1.181-.563-6.095.727-11.133,3.2a47.787,47.787,0,0,0-10.433-9.046c1.682-4.507,2.989-9.448,1.585-11.37-2.848-3.892-15.706-6.474-17.631-5.794-1.208.427-3.691,4.638-5.494,9.8a47.7,47.7,0,0,0-14.124.811c-1.96-4.207-4.423-8.3-6.685-8.654-4.765-.742-15.684,6.526-16.564,8.369-.523,1.1.553,5.425,2.7,10.076a47.707,47.707,0,0,0-9.9,11c-4.105-1.426-8.283-2.361-10.014-1.094-3.894,2.845-6.476,15.7-5.794,17.631.385,1.084,3.825,3.2,8.267,4.929a47.66,47.66,0,0,0,.95,15.359c-3.678,1.833-6.953,4-7.265,6.015-.739,4.765,6.526,15.681,8.371,16.562,1.015.484,4.79-.4,9.031-2.23a47.737,47.737,0,0,0,11.819,10.093c-1.295,3.884-2.071,7.717-.87,9.356,2.845,3.892,15.7,6.474,17.628,5.792,1.089-.385,3.212-3.842,4.944-8.3a47.746,47.746,0,0,0,15.093-1.421c1.888,3.877,4.162,7.441,6.266,7.769,4.765.739,15.684-6.526,16.564-8.369.526-1.1-.563-5.467-2.728-10.148a47.678,47.678,0,0,0,9.208-11.184c4.328,1.565,8.9,2.691,10.738,1.352C1173.132,531.951,1175.714,519.092,1175.032,517.167Zm-64.48,12.115a21.465,21.465,0,1,1,27.1-13.69A21.465,21.465,0,0,1,1110.552,529.282Z" transform="translate(0 0)" fill="#005558"/>
      <g id="Group_2930-2" data-name="Group 2930" transform="translate(1083.516 474.444)">
        <path id="Path_3395-2" data-name="Path 3395" d="M1094.973,528.362a34.046,34.046,0,1,1,42.974-21.715A34.086,34.086,0,0,1,1094.973,528.362Zm21.109-64.229a33.563,33.563,0,1,0,21.406,42.363A33.6,33.6,0,0,0,1116.083,464.133Z" transform="translate(-1071.554 -461.969)" fill="#a4d1bb" stroke="#a4d1bb" stroke-width="5"/>
      </g>
      <g id="Group_2931-2" data-name="Group 2931" transform="translate(1074.149 464.668)">
        <path id="Path_3396-2" data-name="Path 3396" d="M1153.729,476.516c-.186-.084-.367-.174-.548-.265a43.785,43.785,0,0,1-86.211,5.631h0c-.2-.02-.4-.047-.6-.082a44.354,44.354,0,0,0,87.362-5.283Z" transform="translate(-1066.368 -427.552)" fill="#fff"/>
        <path id="Path_3397-2" data-name="Path 3397" d="M1077.948,459.733a43.569,43.569,0,0,1,28.3-.359c.188.062.37.134.556.2-.008-.2-.005-.4,0-.6-.127-.045-.248-.094-.375-.134a44.136,44.136,0,0,0-28.562.32C1077.9,459.349,1077.926,459.54,1077.948,459.733Z" transform="translate(-1049.342 -456.618)" fill="#fff"/>
      </g>
    </g>
  </g>
</svg>
