<svg xmlns="http://www.w3.org/2000/svg" width="187.036" height="547.737" viewBox="0 0 187.036 547.737">
  <g id="Group_2499" data-name="Group 2499" transform="translate(1300.253 -4641.024)">
    <g id="Group_2492" data-name="Group 2492" transform="translate(-1207.759 5156.959)">
      <path id="Path_3140" data-name="Path 3140" d="M-1250.1,4834.184s3.807,5.261,21.734,9.83c3.946,1,8.2,1.689,8.2,8.2h-17.7l-18.1-3.13v3.13h-9.775s-2.719-15.981,2.987-18.032Z" transform="translate(1266.378 -4822.702)" fill="#212b53"/>
      <path id="Path_3141" data-name="Path 3141" d="M-1251.471,4829.979l-.932,11.481h0a11.065,11.065,0,0,1-11.973.4l-.672-.4v-11.481Z" transform="translate(1268.682 -4829.979)" fill="#f7b58e"/>
    </g>
    <g id="Group_2493" data-name="Group 2493" transform="translate(-1298.534 5159.247)">
      <path id="Path_3142" data-name="Path 3142" d="M-1283.346,4835.021s3.806,5.265,21.734,9.833c3.946,1.005,8.2,1.69,8.2,8.2h-17.7l-18.095-3.128v3.128h-9.772s-2.722-15.981,2.987-18.035Z" transform="translate(1299.624 -4823.541)" fill="#212b53"/>
      <path id="Path_3143" data-name="Path 3143" d="M-1284.719,4830.816l-.931,11.479h0a11.055,11.055,0,0,1-11.973.4l-.669-.4v-11.479Z" transform="translate(1301.927 -4830.816)" fill="#f7b58e"/>
    </g>
    <path id="Path_3144" data-name="Path 3144" d="M-1224.78,4742.292l-4.4,288.383H-1250.2s-31.979-232.828-25.15-288.383S-1224.78,4742.292-1224.78,4742.292Z" transform="translate(41.442 132.514)" fill="#212b53"/>
    <path id="Path_3145" data-name="Path 3145" d="M-1206.632,4726.62s-7.315,88.589-24.113,137.628-47.136,150.818-47.136,150.818h-21.743s36.315-212.687,28.009-288.446h64.982Z" transform="translate(1.088 148.124)" fill="#053c5e"/>
    <path id="Path_3146" data-name="Path 3146" d="M-1251.3,4672.861s25.893,60.385,32.465,60.385c5.256,0-1.971-49.309-1.971-49.309h21.685s27.272,84.511,5.586,99.954-69.329-43.7-69.329-43.7Z" transform="translate(64.693 55.097)" fill="#ff5e4d"/>
    <path id="Path_3147" data-name="Path 3147" d="M-1286.911,4730.266l7.847,19.4c3.779,7.62,17.669,7.814,26.89,5.392a1.913,1.913,0,0,0,.9-3.143c-5.062-5.553-18.2-19.788-22.761-22.972Z" transform="translate(23.088 152.146)" fill="#f7b58e"/>
    <path id="Path_3148" data-name="Path 3148" d="M-1221.219,4668.451s13.524,9.172,13.524,19.687V4827.7h-79.241V4697.22s1.622-29.014,29.986-29.014S-1221.219,4668.451-1221.219,4668.451Z" transform="translate(23.045 47.04)" fill="#ff5e4d"/>
    <g id="Group_2494" data-name="Group 2494" transform="translate(-1185.966 4749.456)">
      <path id="Path_3149" data-name="Path 3149" d="M-1258.4,4806.083V4680.735l2.629.09v125.258Z" transform="translate(1258.396 -4680.735)" fill="#00666b"/>
    </g>
    <path id="Path_3150" data-name="Path 3150" d="M-1273.387,4656.882v32.913a20.108,20.108,0,0,0,15.356,7.515c9.887,0,9.887-7.129,9.887-7.129v-21.093l-14.633-3.812Z" transform="translate(46.491 27.444)" fill="#f39f85"/>
    <path id="Path_3151" data-name="Path 3151" d="M-1246.713,4697.621c3.042-.093,5.865-.593,7.34-1.909,8.778-13.991-1.221-51.7-1.221-51.7l-31.859,5.713-1.016,25.272a21.221,21.221,0,0,0,7.962,17.432h0A34.046,34.046,0,0,0-1246.713,4697.621Z" transform="translate(46.321 5.164)" fill="#f7b58e"/>
    <path id="Path_3152" data-name="Path 3152" d="M-1253.191,4655.543a68.13,68.13,0,0,0,21.7,0c11.124-1.975,4.006-14.236,4.006-14.236s-8.235,3.757-22.868,1.595c-9.873-1.458-12.527-3.375-18.859,0-8.6,4.59-6.523,20.137-6.523,20.137l4.748,32.9h1.775s.437-19.563.437-26.223c1.859-3.032,3.877-3.032,5.431-2.272a4.978,4.978,0,0,1,2.638,4.518v34.155s21.754,9.376,27.288,7.678,1.835-27.008,1.835-27.008a10.164,10.164,0,0,0-11.326,2.768c-4.9,5.489-10.845-.221-10.845-.221Z" transform="translate(42.047 0)" fill="#212b53"/>
    <path id="Path_3153" data-name="Path 3153" d="M-1222.444,4694.576l-.765-4.163c-1.69-9.221-10.5-20.689-19.381-23.7h-9.207l2.851,19.668,12.991,8.193Z" transform="translate(83.851 44.457)" fill="#f7b58e"/>
    <path id="Path_3154" data-name="Path 3154" d="M-1270.012,4650.392c2.444-.2,4.789,2.135,5.243,5.226s-1.163,5.76-3.607,5.961-4.792-2.137-5.245-5.227S-1272.456,4650.594-1270.012,4650.392Z" transform="translate(45.953 16.191)" fill="#f7b58e"/>
    <path id="Path_3155" data-name="Path 3155" d="M-1241.449,4677.479l17.931,10.375s-11.252-.113-11.435,0l-18.982-15.883s1.379-2.774,5.68-.432A21.855,21.855,0,0,1-1241.449,4677.479Z" transform="translate(80.15 51.18)" fill="#f7b58e"/>
    <path id="Path_3156" data-name="Path 3156" d="M-1255.454,4671.4s-44.8,49.768-44.8,79.6,36.362,82.4,36.362,82.4l17.964-5.258s-16.211-65.057-16.211-82.365,33.3-42.679,33.3-42.679" transform="translate(0 52.573)" fill="#ff5e4d"/>
    <g id="Group_2495" data-name="Group 2495" transform="translate(-1263.454 4754.63)">
      <path id="Path_3157" data-name="Path 3157" d="M-1284.146,4726.353c0,14.9,13.188,69.375,16.287,82.07-.909.24-1.286.31-2.66.668-3.814-15.68-16.257-68.092-16.257-82.738,0-17.75,32.435-42.671,33.814-43.723l1.595,2.089C-1251.695,4684.97-1284.146,4709.892-1284.146,4726.353Z" transform="translate(1286.776 -4682.63)" fill="#00666b"/>
    </g>
    <g id="Group_2498" data-name="Group 2498" transform="translate(-1187.643 4657.764)">
      <path id="Path_3158" data-name="Path 3158" d="M-1253.414,4661.364s-3.7,19.28,8.205,34.759a5.185,5.185,0,0,0,3.35,1.862c2.763.374,4.7-.6,6.2-1.026a5.751,5.751,0,0,0,3.749-2.687,2.481,2.481,0,0,0-.262-2.6c-2.414-3.6-9.873-15.963-6.477-26.9C-1245,4659.642-1253.414,4661.364-1253.414,4661.364Z" transform="translate(1267.756 -4623.047)" fill="#f49b42"/>
      <path id="Path_3159" data-name="Path 3159" d="M-1239.228,4696a3.807,3.807,0,0,0,2.1-2.014,2.482,2.482,0,0,0-.262-2.6c-2.414-3.6-9.873-15.963-6.477-26.9a16.372,16.372,0,0,0-7.039-3.239C-1251.288,4673.266-1248.714,4681.3-1239.228,4696Z" transform="translate(1272.974 -4622.764)" fill="#f9b646"/>
      <g id="Group_2497" data-name="Group 2497" transform="translate(24.722 48.607)">
        <g id="Group_2496" data-name="Group 2496" transform="translate(0 0.017)">
          <path id="Path_3160" data-name="Path 3160" d="M-1249.7,4670.441c.565,2.761,1.906,4.816,2.99,4.593s1.5-2.64.939-5.4-1.909-4.816-2.993-4.595S-1250.271,4667.682-1249.7,4670.441Z" transform="translate(1249.957 -4664.852)" fill="#f49b42"/>
          <path id="Path_3161" data-name="Path 3161" d="M-1249.6,4665.233l1.141-.271-.083.574-.761.3Z" transform="translate(1250.573 -4664.962)" fill="#f49b42"/>
          <path id="Path_3162" data-name="Path 3162" d="M-1248.743,4669.009l1.382-.268-1.572-.229Z" transform="translate(1251.727 -4658.819)" fill="#e7365e"/>
        </g>
        <path id="Path_3163" data-name="Path 3163" d="M-1249.367,4670.371c.568,2.762,1.906,4.818,2.993,4.6s1.5-2.642.937-5.4-1.906-4.816-2.99-4.593S-1249.932,4667.615-1249.367,4670.371Z" transform="translate(1250.542 -4664.957)" fill="#ffd147"/>
      </g>
      <path id="Path_3164" data-name="Path 3164" d="M-1249.506,4655.236h-2.124a7.233,7.233,0,0,0-7.38,7.031v5.586a7.233,7.233,0,0,0,7.38,7.031h2.124Z" transform="translate(1259.011 -4633.169)" fill="#ffd147"/>
      <path id="Path_3165" data-name="Path 3165" d="M-1221.833,4674.754c0,15.242-3.506,27.6-7.828,27.6s-7.825-12.358-7.825-27.6,3.5-27.6,7.825-27.6S-1221.833,4659.51-1221.833,4674.754Z" transform="translate(1296.259 -4647.154)" fill="#212b53"/>
      <path id="Path_3166" data-name="Path 3166" d="M-1236.093,4653.538l6.185,4.023v8.93l-6.377,5.785-2.2-11.611Z" transform="translate(1294.522 -4636.109)" fill="#fff"/>
      <path id="Path_3167" data-name="Path 3167" d="M-1205.479,4674.171c0-12.81,2.477-23.55,5.832-26.664l-.014-.016c-25.926,18.709-56.321,21.344-56.321,21.344v19.48s41.1-2.309,56.321,12.534l.022-.012C-1203,4697.734-1205.479,4686.988-1205.479,4674.171Z" transform="translate(1264.252 -4646.571)" fill="#a4d1bb"/>
      <path id="Path_3168" data-name="Path 3168" d="M-1233.964,4659.482c0,2.475-.38,4.483-.847,4.483s-.846-2.008-.846-4.483.38-4.484.846-4.484S-1233.964,4657-1233.964,4659.482Z" transform="translate(1299.424 -4633.583)" fill="#ffd147"/>
    </g>
    <path id="Path_3169" data-name="Path 3169" d="M-1232.835,4680.039c-.633.235-2.853,1.634-10.018,1.634-5.215,0-7.563-6.412-8.454-9.9-.314-1.229-.59-2.97.942-3.754l8.379-1.161Z" transform="translate(84.276 44.714)" fill="#f7b58e"/>
  </g>
</svg>
